<?xml version="1.0" encoding="utf-8"?>
<!-- Generator: Adobe Illustrator 26.0.3, SVG Export Plug-In . SVG Version: 6.00 Build 0)  -->
<svg version="1.1" id="Layer_1" xmlns="http://www.w3.org/2000/svg" xmlns:xlink="http://www.w3.org/1999/xlink" x="0px" y="0px"
	 viewBox="0 0 462.1 97.1" style="enable-background:new 0 0 462.1 97.1;" xml:space="preserve">
<style type="text/css">
	.st0{fill:#FFFFFF;}
	.st1{fill:#27B5B6;}
	.st2{fill:#010202;}
	.st3{fill:none;}
</style>
<g>
	<g>
		<path class="st0" d="M128.3,53.1c0,0.2-0.1,0.3-0.2,0.5c-0.1,0.1-0.3,0.2-0.5,0.3c-0.3,0.1-0.6,0.2-1,0.2c-0.4,0-1,0.1-1.6,0.1
			c-0.7,0-1.2,0-1.6-0.1c-0.4-0.1-0.8-0.1-1-0.2s-0.4-0.2-0.5-0.3c-0.1-0.1-0.2-0.3-0.2-0.5V39.8h-12.2v13.2c0,0.2-0.1,0.3-0.2,0.5
			c-0.1,0.1-0.3,0.2-0.5,0.3c-0.3,0.1-0.6,0.2-1,0.2c-0.4,0-1,0.1-1.6,0.1c-0.6,0-1.2,0-1.6-0.1c-0.4-0.1-0.8-0.1-1-0.2
			c-0.3-0.1-0.4-0.2-0.5-0.3c-0.1-0.1-0.2-0.3-0.2-0.5V22.2c0-0.2,0.1-0.3,0.2-0.5s0.3-0.2,0.5-0.3c0.3-0.1,0.6-0.2,1-0.2
			c0.4-0.1,1-0.1,1.6-0.1c0.7,0,1.2,0,1.6,0.1c0.4,0.1,0.8,0.1,1,0.2c0.3,0.1,0.4,0.2,0.5,0.3s0.2,0.3,0.2,0.5v12h12.2v-12
			c0-0.2,0.1-0.3,0.2-0.5c0.1-0.1,0.3-0.2,0.5-0.3c0.2-0.1,0.6-0.2,1-0.2c0.4-0.1,1-0.1,1.6-0.1c0.6,0,1.2,0,1.6,0.1
			c0.4,0.1,0.8,0.1,1,0.2c0.3,0.1,0.4,0.2,0.5,0.3s0.2,0.3,0.2,0.5V53.1z"/>
	</g>
	<g>
		<path class="st0" d="M162.2,51.5c0.2,0.6,0.3,1.1,0.4,1.4c0.1,0.4,0,0.6-0.2,0.8c-0.2,0.2-0.5,0.3-1,0.3c-0.5,0-1.1,0.1-1.9,0.1
			c-0.9,0-1.5,0-2,0c-0.5,0-0.8-0.1-1.1-0.2c-0.3-0.1-0.4-0.2-0.5-0.3s-0.2-0.3-0.3-0.5l-2.2-6.6H141l-2.1,6.4
			c-0.1,0.2-0.2,0.4-0.3,0.6c-0.1,0.2-0.3,0.3-0.5,0.4c-0.2,0.1-0.6,0.2-1,0.2c-0.4,0-1,0.1-1.8,0.1c-0.8,0-1.4,0-1.8-0.1
			c-0.4-0.1-0.7-0.2-0.9-0.4c-0.2-0.2-0.2-0.5-0.2-0.8s0.2-0.8,0.4-1.4l10.1-29c0.1-0.3,0.2-0.5,0.4-0.7s0.3-0.3,0.6-0.4
			c0.3-0.1,0.7-0.2,1.2-0.2s1.2,0,2.1,0c1,0,1.8,0,2.4,0c0.6,0,1,0.1,1.4,0.2c0.3,0.1,0.6,0.2,0.7,0.4c0.1,0.2,0.3,0.4,0.4,0.8
			L162.2,51.5z M147.2,27.5L147.2,27.5l-4.6,13.9h9.3L147.2,27.5z"/>
		<path class="st0" d="M204.8,53.1c0,0.2,0,0.3-0.1,0.5c-0.1,0.1-0.3,0.2-0.5,0.3s-0.6,0.2-1,0.2c-0.4,0-0.9,0.1-1.5,0.1
			c-0.6,0-1.1,0-1.5-0.1c-0.4-0.1-0.7-0.1-1-0.2c-0.2-0.1-0.4-0.2-0.5-0.3c-0.1-0.1-0.2-0.3-0.2-0.5V26.5h-0.1L189,53
			c-0.1,0.2-0.2,0.4-0.3,0.5c-0.2,0.1-0.4,0.3-0.6,0.3c-0.3,0.1-0.6,0.1-1,0.2c-0.4,0-0.9,0-1.5,0s-1.1,0-1.5-0.1
			c-0.4,0-0.7-0.1-1-0.2c-0.3-0.1-0.5-0.2-0.6-0.3c-0.2-0.1-0.3-0.3-0.3-0.5l-9.1-26.6H173v26.6c0,0.2,0,0.3-0.1,0.5
			c-0.1,0.1-0.3,0.2-0.5,0.3c-0.3,0.1-0.6,0.2-1,0.2c-0.4,0-0.9,0.1-1.5,0.1c-0.6,0-1.1,0-1.5-0.1c-0.4-0.1-0.7-0.1-1-0.2
			s-0.4-0.2-0.5-0.3c-0.1-0.1-0.1-0.3-0.1-0.5V23.9c0-0.9,0.2-1.5,0.7-2c0.5-0.5,1.1-0.7,1.8-0.7h4.3c0.8,0,1.4,0.1,2,0.2
			c0.6,0.1,1,0.3,1.4,0.6c0.4,0.3,0.7,0.7,1,1.2c0.3,0.5,0.5,1.1,0.7,1.8l7.1,19.5h0.1l7.3-19.4c0.2-0.7,0.5-1.3,0.7-1.8
			c0.3-0.5,0.6-0.9,0.9-1.2c0.3-0.3,0.8-0.5,1.2-0.6c0.5-0.1,1-0.2,1.6-0.2h4.5c0.5,0,0.8,0.1,1.2,0.2c0.3,0.1,0.6,0.3,0.8,0.5
			c0.2,0.2,0.4,0.5,0.5,0.8c0.1,0.3,0.2,0.7,0.2,1.1V53.1z"/>
		<path class="st0" d="M239.1,37.1c0,3-0.4,5.6-1.2,7.7c-0.8,2.1-1.9,3.9-3.4,5.2c-1.5,1.3-3.2,2.3-5.3,3s-4.6,0.9-7.5,0.9h-7.8
			c-0.6,0-1-0.2-1.4-0.5c-0.4-0.3-0.6-0.9-0.6-1.6V23.4c0-0.7,0.2-1.3,0.6-1.6c0.4-0.3,0.8-0.5,1.4-0.5h8.4c2.9,0,5.4,0.3,7.4,1
			s3.7,1.7,5.1,3c1.4,1.3,2.4,3,3.2,5C238.7,32.3,239.1,34.5,239.1,37.1z M232.2,37.4c0-1.5-0.2-3-0.5-4.3c-0.4-1.3-0.9-2.5-1.7-3.5
			c-0.8-1-1.8-1.7-3.1-2.3c-1.3-0.5-2.9-0.8-4.9-0.8h-3.4v22.2h3.5c1.8,0,3.4-0.2,4.6-0.7c1.2-0.5,2.3-1.2,3.1-2.1
			c0.8-1,1.5-2.1,1.9-3.5C232,40.9,232.2,39.3,232.2,37.4z"/>
		<path class="st0" d="M275.6,44.2c0,1.7-0.3,3.2-1,4.5c-0.6,1.3-1.5,2.4-2.6,3.2s-2.4,1.5-3.8,2c-1.5,0.4-3,0.7-4.7,0.7
			c-1.1,0-2.2-0.1-3.1-0.3c-1-0.2-1.8-0.4-2.6-0.7c-0.7-0.3-1.4-0.5-1.9-0.8c-0.5-0.3-0.9-0.5-1.1-0.8c-0.2-0.2-0.4-0.5-0.5-0.9
			c-0.1-0.4-0.1-1-0.1-1.8c0-0.5,0-1,0-1.3c0-0.4,0.1-0.6,0.2-0.9c0.1-0.2,0.2-0.4,0.3-0.5c0.1-0.1,0.3-0.1,0.4-0.1
			c0.2,0,0.6,0.1,1,0.4s1,0.6,1.7,0.9c0.7,0.3,1.5,0.6,2.4,0.9c0.9,0.3,2,0.4,3.2,0.4c0.8,0,1.5-0.1,2.2-0.3
			c0.6-0.2,1.2-0.5,1.6-0.8c0.4-0.4,0.8-0.8,1-1.3c0.2-0.5,0.4-1.1,0.4-1.7c0-0.7-0.2-1.4-0.6-1.9c-0.4-0.5-0.9-1-1.6-1.4
			c-0.6-0.4-1.4-0.8-2.2-1.2c-0.8-0.4-1.7-0.7-2.6-1.1c-0.9-0.4-1.7-0.9-2.6-1.4s-1.6-1.1-2.2-1.8c-0.6-0.7-1.2-1.6-1.6-2.5
			c-0.4-1-0.6-2.1-0.6-3.5c0-1.6,0.3-2.9,0.9-4.1c0.6-1.2,1.4-2.2,2.3-3c1-0.8,2.1-1.4,3.5-1.8s2.8-0.6,4.3-0.6
			c0.8,0,1.5,0.1,2.3,0.2c0.8,0.1,1.5,0.3,2.2,0.5s1.3,0.4,1.8,0.7c0.5,0.3,0.9,0.5,1,0.6c0.2,0.2,0.3,0.3,0.3,0.4
			c0.1,0.1,0.1,0.3,0.2,0.5c0,0.2,0.1,0.4,0.1,0.7s0,0.7,0,1.1c0,0.5,0,0.9,0,1.2s-0.1,0.6-0.1,0.8c-0.1,0.2-0.1,0.4-0.3,0.5
			s-0.3,0.2-0.4,0.2c-0.2,0-0.5-0.1-0.9-0.4c-0.4-0.2-0.9-0.5-1.5-0.8s-1.3-0.5-2-0.8c-0.8-0.2-1.6-0.3-2.6-0.3
			c-0.7,0-1.4,0.1-1.9,0.3c-0.5,0.2-1,0.4-1.4,0.7c-0.4,0.3-0.6,0.7-0.8,1.1c-0.2,0.4-0.3,0.9-0.3,1.4c0,0.7,0.2,1.4,0.6,1.9
			c0.4,0.5,0.9,1,1.6,1.4c0.7,0.4,1.4,0.8,2.3,1.2c0.8,0.4,1.7,0.7,2.6,1.1c0.9,0.4,1.7,0.9,2.6,1.4c0.8,0.5,1.6,1.1,2.2,1.8
			c0.7,0.7,1.2,1.6,1.6,2.5S275.6,42.8,275.6,44.2z"/>
		<path class="st0" d="M306.2,53.1c0,0.2-0.1,0.3-0.2,0.5c-0.1,0.1-0.3,0.2-0.5,0.3s-0.6,0.2-1,0.2c-0.4,0-1,0.1-1.6,0.1
			c-0.7,0-1.2,0-1.6-0.1c-0.4-0.1-0.8-0.1-1-0.2s-0.4-0.2-0.5-0.3c-0.1-0.1-0.2-0.3-0.2-0.5V39.8h-12.2v13.2c0,0.2-0.1,0.3-0.2,0.5
			c-0.1,0.1-0.3,0.2-0.5,0.3c-0.3,0.1-0.6,0.2-1,0.2c-0.4,0-1,0.1-1.6,0.1c-0.6,0-1.2,0-1.6-0.1c-0.4-0.1-0.8-0.1-1-0.2
			c-0.3-0.1-0.4-0.2-0.5-0.3c-0.1-0.1-0.2-0.3-0.2-0.5V22.2c0-0.2,0.1-0.3,0.2-0.5s0.3-0.2,0.5-0.3c0.3-0.1,0.6-0.2,1-0.2
			c0.4-0.1,1-0.1,1.6-0.1c0.7,0,1.2,0,1.6,0.1c0.4,0.1,0.8,0.1,1,0.2c0.3,0.1,0.4,0.2,0.5,0.3c0.1,0.1,0.2,0.3,0.2,0.5v12h12.2v-12
			c0-0.2,0.1-0.3,0.2-0.5c0.1-0.1,0.3-0.2,0.5-0.3c0.2-0.1,0.6-0.2,1-0.2c0.4-0.1,1-0.1,1.6-0.1c0.6,0,1.2,0,1.6,0.1
			c0.4,0.1,0.8,0.1,1,0.2c0.3,0.1,0.4,0.2,0.5,0.3s0.2,0.3,0.2,0.5V53.1z"/>
		<path class="st0" d="M320,53.1c0,0.2-0.1,0.3-0.2,0.5c-0.1,0.1-0.3,0.2-0.5,0.3c-0.3,0.1-0.6,0.2-1,0.2c-0.4,0-1,0.1-1.6,0.1
			c-0.6,0-1.2,0-1.6-0.1c-0.4-0.1-0.8-0.1-1-0.2c-0.3-0.1-0.4-0.2-0.5-0.3c-0.1-0.1-0.2-0.3-0.2-0.5V22.2c0-0.2,0.1-0.3,0.2-0.5
			s0.3-0.2,0.6-0.3c0.3-0.1,0.6-0.2,1-0.2c0.4-0.1,1-0.1,1.6-0.1c0.7,0,1.2,0,1.6,0.1c0.4,0.1,0.8,0.1,1,0.2
			c0.3,0.1,0.4,0.2,0.5,0.3s0.2,0.3,0.2,0.5V53.1z"/>
		<path class="st0" d="M349.5,31.2c0,1.8-0.3,3.5-0.9,4.9c-0.6,1.4-1.4,2.6-2.5,3.6c-1.1,1-2.4,1.7-4,2.2c-1.6,0.5-3.5,0.8-5.6,0.8
			h-2.7v10.4c0,0.2-0.1,0.3-0.2,0.5c-0.1,0.1-0.3,0.2-0.5,0.3c-0.3,0.1-0.6,0.2-1,0.2c-0.4,0-1,0.1-1.6,0.1c-0.6,0-1.2,0-1.6-0.1
			c-0.4-0.1-0.8-0.1-1-0.2c-0.3-0.1-0.4-0.2-0.5-0.3c-0.1-0.1-0.2-0.3-0.2-0.5V23.6c0-0.8,0.2-1.4,0.6-1.8c0.4-0.4,1-0.6,1.6-0.6
			h7.7c0.8,0,1.5,0,2.2,0.1c0.7,0.1,1.5,0.2,2.5,0.4c1,0.2,2,0.6,3,1.1c1,0.5,1.9,1.2,2.6,2c0.7,0.8,1.2,1.7,1.6,2.8
			C349.3,28.7,349.5,29.9,349.5,31.2z M342.6,31.7c0-1.1-0.2-2.1-0.6-2.8c-0.4-0.7-0.9-1.3-1.5-1.6c-0.6-0.4-1.2-0.6-1.9-0.7
			c-0.6-0.1-1.3-0.1-2-0.1h-2.8v11.1h3c1.1,0,1.9-0.1,2.7-0.4c0.7-0.3,1.3-0.7,1.8-1.2c0.5-0.5,0.8-1.1,1-1.8
			C342.4,33.3,342.6,32.5,342.6,31.7z"/>
		<path class="st0" d="M377,31.2c0,1.8-0.3,3.5-0.9,4.9c-0.6,1.4-1.4,2.6-2.5,3.6c-1.1,1-2.4,1.7-4,2.2c-1.6,0.5-3.5,0.8-5.6,0.8
			h-2.7v10.4c0,0.2-0.1,0.3-0.2,0.5c-0.1,0.1-0.3,0.2-0.5,0.3c-0.3,0.1-0.6,0.2-1,0.2c-0.4,0-1,0.1-1.6,0.1c-0.6,0-1.2,0-1.6-0.1
			c-0.4-0.1-0.8-0.1-1-0.2c-0.3-0.1-0.4-0.2-0.5-0.3c-0.1-0.1-0.2-0.3-0.2-0.5V23.6c0-0.8,0.2-1.4,0.6-1.8c0.4-0.4,1-0.6,1.6-0.6
			h7.7c0.8,0,1.5,0,2.2,0.1c0.7,0.1,1.5,0.2,2.5,0.4c1,0.2,2,0.6,3,1.1c1,0.5,1.9,1.2,2.6,2c0.7,0.8,1.2,1.7,1.6,2.8
			C376.9,28.7,377,29.9,377,31.2z M370.1,31.7c0-1.1-0.2-2.1-0.6-2.8c-0.4-0.7-0.9-1.3-1.5-1.6c-0.6-0.4-1.2-0.6-1.9-0.7
			c-0.6-0.1-1.3-0.1-2-0.1h-2.8v11.1h3c1.1,0,1.9-0.1,2.7-0.4c0.7-0.3,1.3-0.7,1.8-1.2c0.5-0.5,0.8-1.1,1-1.8
			C370,33.3,370.1,32.5,370.1,31.7z"/>
		<path class="st0" d="M388.9,53.1c0,0.2-0.1,0.3-0.2,0.5c-0.1,0.1-0.3,0.2-0.5,0.3c-0.3,0.1-0.6,0.2-1,0.2c-0.4,0-1,0.1-1.6,0.1
			c-0.6,0-1.2,0-1.6-0.1c-0.4-0.1-0.8-0.1-1-0.2c-0.3-0.1-0.4-0.2-0.5-0.3c-0.1-0.1-0.2-0.3-0.2-0.5V22.2c0-0.2,0.1-0.3,0.2-0.5
			s0.3-0.2,0.6-0.3c0.3-0.1,0.6-0.2,1-0.2c0.4-0.1,1-0.1,1.6-0.1c0.7,0,1.2,0,1.6,0.1c0.4,0.1,0.8,0.1,1,0.2
			c0.3,0.1,0.4,0.2,0.5,0.3s0.2,0.3,0.2,0.5V53.1z"/>
		<path class="st0" d="M422.9,51.6c0,0.4-0.1,0.7-0.2,1c-0.1,0.3-0.3,0.6-0.5,0.8c-0.2,0.2-0.5,0.3-0.8,0.4
			c-0.3,0.1-0.6,0.1-0.9,0.1h-2.8c-0.6,0-1.1-0.1-1.5-0.2s-0.8-0.3-1.2-0.6s-0.7-0.7-1-1.3c-0.3-0.5-0.7-1.2-1.1-2.1l-8.1-15.3
			c-0.5-0.9-1-1.9-1.4-2.9c-0.5-1.1-0.9-2.1-1.3-3.1h-0.1c0.1,1.2,0.1,2.4,0.2,3.6c0,1.2,0.1,2.4,0.1,3.7V53c0,0.2,0,0.3-0.1,0.5
			s-0.3,0.2-0.5,0.3c-0.2,0.1-0.5,0.2-0.9,0.2c-0.4,0-0.9,0.1-1.5,0.1c-0.6,0-1.1,0-1.5-0.1c-0.4-0.1-0.7-0.1-0.9-0.2
			s-0.4-0.2-0.5-0.3S396,53.2,396,53V23.6c0-0.8,0.2-1.4,0.7-1.8c0.5-0.4,1-0.6,1.7-0.6h3.6c0.6,0,1.2,0.1,1.6,0.2
			c0.4,0.1,0.8,0.3,1.2,0.5c0.3,0.3,0.7,0.6,1,1c0.3,0.4,0.6,1,0.9,1.7l6.4,11.9c0.4,0.7,0.7,1.4,1.1,2.1c0.4,0.7,0.7,1.4,1,2.1
			c0.3,0.7,0.7,1.4,1,2.1c0.3,0.7,0.6,1.3,0.9,2h0c-0.1-1.2-0.1-2.4-0.1-3.7c0-1.3,0-2.5,0-3.7V22.3c0-0.2,0-0.3,0.2-0.5
			c0.1-0.1,0.3-0.3,0.5-0.4c0.2-0.1,0.5-0.2,0.9-0.2c0.4,0,0.9-0.1,1.5-0.1c0.6,0,1.1,0,1.4,0.1c0.4,0,0.7,0.1,0.9,0.2
			c0.2,0.1,0.4,0.2,0.4,0.4s0.1,0.3,0.1,0.5V51.6z"/>
		<path class="st0" d="M456.3,26.4c0,0.5,0,0.9-0.1,1.3s-0.1,0.6-0.2,0.8c-0.1,0.2-0.2,0.4-0.3,0.4s-0.2,0.1-0.4,0.1
			c-0.2,0-0.6-0.2-1.1-0.5s-1.1-0.6-1.9-1c-0.8-0.4-1.8-0.7-2.9-1c-1.1-0.3-2.4-0.5-3.9-0.5c-1.6,0-3,0.3-4.3,0.8
			c-1.3,0.5-2.4,1.3-3.3,2.3c-0.9,1-1.6,2.2-2.1,3.6c-0.5,1.4-0.7,3-0.7,4.7c0,1.9,0.2,3.5,0.7,4.9c0.5,1.4,1.2,2.6,2.1,3.6
			s2,1.7,3.2,2.2c1.3,0.5,2.6,0.7,4.2,0.7c0.7,0,1.5-0.1,2.2-0.3c0.7-0.2,1.4-0.4,2-0.8v-7.6h-6.2c-0.3,0-0.5-0.2-0.7-0.6
			c-0.2-0.4-0.3-1-0.3-1.9c0-0.5,0-0.9,0.1-1.2s0.1-0.6,0.2-0.8c0.1-0.2,0.2-0.3,0.3-0.4c0.1-0.1,0.3-0.1,0.4-0.1h11
			c0.3,0,0.5,0,0.7,0.1c0.2,0.1,0.4,0.2,0.6,0.4c0.2,0.2,0.3,0.4,0.4,0.7c0.1,0.3,0.1,0.6,0.1,0.9v13c0,0.5-0.1,0.9-0.3,1.3
			c-0.2,0.4-0.5,0.7-1.1,0.9s-1.2,0.4-2,0.7c-0.8,0.2-1.6,0.4-2.5,0.6s-1.7,0.3-2.6,0.4c-0.9,0.1-1.8,0.1-2.7,0.1
			c-2.6,0-4.9-0.4-7-1.1c-2.1-0.7-3.8-1.8-5.2-3.3c-1.4-1.4-2.5-3.2-3.3-5.2s-1.1-4.4-1.1-7c0-2.7,0.4-5.1,1.2-7.2
			c0.8-2.1,2-3.9,3.4-5.4c1.5-1.5,3.3-2.6,5.4-3.4s4.4-1.2,7-1.2c1.4,0,2.7,0.1,3.9,0.3c1.2,0.2,2.2,0.4,3,0.7s1.6,0.6,2.2,0.9
			c0.6,0.3,1,0.6,1.2,0.8s0.4,0.6,0.5,1C456.2,24.9,456.3,25.5,456.3,26.4z"/>
	</g>
	<g>
		<path class="st0" d="M102.7,79.5V65.4h6c1.5,0,2.6,0.1,3.3,0.4c0.7,0.3,1.2,0.7,1.6,1.4c0.4,0.6,0.6,1.4,0.6,2.2
			c0,1.1-0.3,1.9-0.9,2.6c-0.6,0.7-1.6,1.1-2.8,1.3c0.6,0.4,1.1,0.8,1.5,1.2c0.4,0.4,0.9,1.2,1.6,2.3l1.7,2.8H112l-2.1-3.1
			c-0.7-1.1-1.2-1.8-1.5-2.1s-0.6-0.5-0.9-0.6c-0.3-0.1-0.8-0.2-1.4-0.2h-0.6v5.9H102.7z M105.5,71.3h2.1c1.4,0,2.2-0.1,2.6-0.2
			s0.6-0.3,0.8-0.6s0.3-0.6,0.3-1.1c0-0.5-0.1-0.9-0.4-1.1s-0.6-0.5-1.1-0.6c-0.2,0-0.9,0-2.1,0h-2.2V71.3z"/>
		<path class="st0" d="M122.8,76.2l2.7,0.5c-0.3,1-0.9,1.7-1.6,2.3c-0.7,0.5-1.7,0.8-2.8,0.8c-1.8,0-3.1-0.6-3.9-1.7
			c-0.7-0.9-1-2.1-1-3.5c0-1.7,0.4-3,1.3-4s2-1.4,3.4-1.4c1.5,0,2.7,0.5,3.6,1.5c0.9,1,1.3,2.5,1.3,4.6h-6.8c0,0.8,0.2,1.4,0.7,1.9
			c0.4,0.4,0.9,0.7,1.6,0.7c0.4,0,0.8-0.1,1.1-0.3C122.4,77.1,122.7,76.7,122.8,76.2z M123,73.5c0-0.8-0.2-1.4-0.6-1.8
			c-0.4-0.4-0.9-0.6-1.4-0.6c-0.6,0-1.1,0.2-1.5,0.6c-0.4,0.4-0.6,1-0.6,1.8H123z"/>
		<path class="st0" d="M127.9,79.5V65.4h2.7v14.1H127.9z"/>
		<path class="st0" d="M133.3,67.9v-2.5h2.7v2.5H133.3z M133.3,79.5V69.3h2.7v10.2H133.3z"/>
		<path class="st0" d="M140.8,72.4l-2.5-0.4c0.3-1,0.8-1.7,1.4-2.2s1.7-0.7,3-0.7c1.2,0,2.1,0.1,2.7,0.4s1,0.6,1.2,1.1
			c0.2,0.4,0.4,1.2,0.4,2.4l0,3.2c0,0.9,0,1.6,0.1,2c0.1,0.4,0.2,0.9,0.5,1.4H145c-0.1-0.2-0.2-0.4-0.3-0.8c0-0.2-0.1-0.3-0.1-0.3
			c-0.5,0.4-1,0.8-1.5,1c-0.5,0.2-1.1,0.3-1.7,0.3c-1.1,0-1.9-0.3-2.5-0.9c-0.6-0.6-0.9-1.3-0.9-2.2c0-0.6,0.1-1.1,0.4-1.5
			s0.7-0.8,1.2-1c0.5-0.2,1.2-0.5,2.2-0.6c1.3-0.2,2.1-0.5,2.6-0.7v-0.3c0-0.5-0.1-0.9-0.4-1.1c-0.3-0.2-0.7-0.3-1.5-0.3
			c-0.5,0-0.9,0.1-1.1,0.3S141,71.9,140.8,72.4z M144.4,74.6c-0.3,0.1-0.9,0.3-1.6,0.4s-1.2,0.3-1.5,0.5c-0.4,0.2-0.5,0.6-0.5,1
			c0,0.4,0.1,0.7,0.4,1c0.3,0.3,0.6,0.4,1.1,0.4c0.5,0,1-0.2,1.4-0.5c0.3-0.2,0.5-0.5,0.6-0.9c0.1-0.2,0.1-0.7,0.1-1.3V74.6z"/>
		<path class="st0" d="M149.7,79.5V65.4h2.7v5.1c0.8-0.9,1.8-1.4,3-1.4c1.2,0,2.3,0.5,3.1,1.4c0.8,0.9,1.2,2.2,1.2,3.9
			c0,1.7-0.4,3.1-1.2,4c-0.8,0.9-1.8,1.4-3,1.4c-0.6,0-1.2-0.1-1.7-0.4s-1.1-0.7-1.5-1.3v1.5H149.7z M152.3,74.1
			c0,1.1,0.2,1.8,0.5,2.3c0.5,0.7,1.1,1.1,1.9,1.1c0.6,0,1.1-0.3,1.5-0.8c0.4-0.5,0.6-1.3,0.6-2.4c0-1.2-0.2-2-0.6-2.5
			c-0.4-0.5-1-0.8-1.6-0.8c-0.6,0-1.2,0.3-1.6,0.8C152.6,72.3,152.3,73.1,152.3,74.1z"/>
		<path class="st0" d="M161.8,79.5V65.4h2.7v14.1H161.8z"/>
		<path class="st0" d="M173.2,76.2l2.7,0.5c-0.3,1-0.9,1.7-1.6,2.3c-0.7,0.5-1.7,0.8-2.8,0.8c-1.8,0-3.1-0.6-3.9-1.7
			c-0.7-0.9-1-2.1-1-3.5c0-1.7,0.4-3,1.3-4s2-1.4,3.4-1.4c1.5,0,2.7,0.5,3.6,1.5c0.9,1,1.3,2.5,1.3,4.6h-6.8c0,0.8,0.2,1.4,0.7,1.9
			c0.4,0.4,0.9,0.7,1.6,0.7c0.4,0,0.8-0.1,1.1-0.3C172.8,77.1,173.1,76.7,173.2,76.2z M173.4,73.5c0-0.8-0.2-1.4-0.6-1.8
			c-0.4-0.4-0.9-0.6-1.4-0.6c-0.6,0-1.1,0.2-1.5,0.6c-0.4,0.4-0.6,1-0.6,1.8H173.4z"/>
		<path class="st0" d="M183.7,79.5V65.4h4.6c1.7,0,2.9,0.1,3.4,0.2c0.8,0.2,1.5,0.7,2,1.4c0.5,0.7,0.8,1.6,0.8,2.7
			c0,0.9-0.2,1.6-0.5,2.2s-0.7,1.1-1.2,1.4s-1,0.6-1.5,0.7c-0.7,0.1-1.7,0.2-3,0.2h-1.9v5.3H183.7z M186.6,67.8v4h1.6
			c1.1,0,1.9-0.1,2.3-0.2c0.4-0.1,0.7-0.4,0.9-0.7c0.2-0.3,0.3-0.7,0.3-1.1c0-0.5-0.2-0.9-0.5-1.3c-0.3-0.3-0.7-0.5-1.1-0.6
			c-0.3-0.1-1-0.1-2-0.1H186.6z"/>
		<path class="st0" d="M198.9,72.4l-2.5-0.4c0.3-1,0.8-1.7,1.4-2.2s1.7-0.7,3-0.7c1.2,0,2.1,0.1,2.7,0.4c0.6,0.3,1,0.6,1.2,1.1
			c0.2,0.4,0.4,1.2,0.4,2.4l0,3.2c0,0.9,0,1.6,0.1,2c0.1,0.4,0.2,0.9,0.5,1.4h-2.7c-0.1-0.2-0.2-0.4-0.3-0.8c0-0.2-0.1-0.3-0.1-0.3
			c-0.5,0.4-1,0.8-1.5,1c-0.5,0.2-1.1,0.3-1.7,0.3c-1.1,0-1.9-0.3-2.5-0.9c-0.6-0.6-0.9-1.3-0.9-2.2c0-0.6,0.1-1.1,0.4-1.5
			s0.7-0.8,1.2-1c0.5-0.2,1.2-0.5,2.2-0.6c1.3-0.2,2.1-0.5,2.6-0.7v-0.3c0-0.5-0.1-0.9-0.4-1.1c-0.3-0.2-0.7-0.3-1.5-0.3
			c-0.5,0-0.9,0.1-1.1,0.3S199.1,71.9,198.9,72.4z M202.5,74.6c-0.3,0.1-0.9,0.3-1.6,0.4c-0.8,0.2-1.2,0.3-1.5,0.5
			c-0.4,0.2-0.5,0.6-0.5,1c0,0.4,0.1,0.7,0.4,1c0.3,0.3,0.6,0.4,1.1,0.4c0.5,0,1-0.2,1.4-0.5c0.3-0.2,0.5-0.5,0.6-0.9
			c0.1-0.2,0.1-0.7,0.1-1.3V74.6z"/>
		<path class="st0" d="M210.4,79.5h-2.7V69.3h2.5v1.5c0.4-0.7,0.8-1.1,1.2-1.4c0.3-0.2,0.7-0.3,1.2-0.3c0.6,0,1.2,0.2,1.8,0.5
			l-0.8,2.4c-0.5-0.3-0.9-0.4-1.3-0.4c-0.4,0-0.7,0.1-1,0.3c-0.3,0.2-0.5,0.6-0.6,1.1s-0.2,1.7-0.2,3.4V79.5z"/>
		<path class="st0" d="M220.2,69.3v2.2h-1.8v4.1c0,0.8,0,1.3,0.1,1.5s0.1,0.3,0.2,0.3s0.3,0.1,0.5,0.1c0.3,0,0.6-0.1,1.1-0.3
			l0.2,2.1c-0.6,0.3-1.3,0.4-2.1,0.4c-0.5,0-0.9-0.1-1.3-0.2c-0.4-0.2-0.7-0.4-0.9-0.6c-0.2-0.3-0.3-0.6-0.4-1.1
			c-0.1-0.3-0.1-0.9-0.1-1.9v-4.5h-1.2v-2.2h1.2v-2l2.7-1.6v3.6H220.2z"/>
		<path class="st0" d="M231.4,79.5h-2.7v-5.2c0-1.1-0.1-1.8-0.2-2.1c-0.1-0.3-0.3-0.6-0.6-0.8s-0.6-0.3-0.9-0.3
			c-0.5,0-0.9,0.1-1.3,0.4c-0.4,0.3-0.6,0.6-0.8,1c-0.1,0.4-0.2,1.2-0.2,2.3v4.6H222V69.3h2.5v1.5c0.9-1.2,2-1.7,3.4-1.7
			c0.6,0,1.1,0.1,1.6,0.3s0.9,0.5,1.1,0.8c0.3,0.3,0.4,0.7,0.5,1.1c0.1,0.4,0.1,1,0.1,1.8V79.5z"/>
		<path class="st0" d="M240,76.2l2.7,0.5c-0.3,1-0.9,1.7-1.6,2.3c-0.7,0.5-1.7,0.8-2.8,0.8c-1.8,0-3.1-0.6-3.9-1.7
			c-0.7-0.9-1-2.1-1-3.5c0-1.7,0.4-3,1.3-4c0.9-1,2-1.4,3.4-1.4c1.5,0,2.7,0.5,3.6,1.5s1.3,2.5,1.3,4.6h-6.8c0,0.8,0.2,1.4,0.7,1.9
			c0.4,0.4,0.9,0.7,1.6,0.7c0.4,0,0.8-0.1,1.1-0.3C239.6,77.1,239.9,76.7,240,76.2z M240.2,73.5c0-0.8-0.2-1.4-0.6-1.8
			c-0.4-0.4-0.9-0.6-1.4-0.6c-0.6,0-1.1,0.2-1.5,0.6c-0.4,0.4-0.6,1-0.6,1.8H240.2z"/>
		<path class="st0" d="M247.6,79.5h-2.7V69.3h2.5v1.5c0.4-0.7,0.8-1.1,1.2-1.4c0.3-0.2,0.7-0.3,1.2-0.3c0.6,0,1.2,0.2,1.8,0.5
			l-0.8,2.4c-0.5-0.3-0.9-0.4-1.3-0.4c-0.4,0-0.7,0.1-1,0.3c-0.3,0.2-0.5,0.6-0.6,1.1c-0.2,0.5-0.2,1.7-0.2,3.4V79.5z"/>
		<path class="st0" d="M258.1,79.5V65.4h2.8v14.1H258.1z"/>
		<path class="st0" d="M273,79.5h-2.7v-5.2c0-1.1-0.1-1.8-0.2-2.1c-0.1-0.3-0.3-0.6-0.6-0.8s-0.6-0.3-0.9-0.3
			c-0.5,0-0.9,0.1-1.3,0.4c-0.4,0.3-0.6,0.6-0.8,1c-0.1,0.4-0.2,1.2-0.2,2.3v4.6h-2.7V69.3h2.5v1.5c0.9-1.2,2-1.7,3.4-1.7
			c0.6,0,1.1,0.1,1.6,0.3s0.9,0.5,1.1,0.8c0.3,0.3,0.4,0.7,0.5,1.1c0.1,0.4,0.1,1,0.1,1.8V79.5z"/>
		<path class="st0" d="M280.5,74.9l2.8-0.3c0.2,0.9,0.5,1.6,1,2c0.5,0.4,1.2,0.7,2.1,0.7c0.9,0,1.6-0.2,2.1-0.6
			c0.5-0.4,0.7-0.8,0.7-1.4c0-0.3-0.1-0.6-0.3-0.9c-0.2-0.2-0.5-0.4-1-0.6c-0.3-0.1-1.1-0.3-2.3-0.6c-1.5-0.4-2.6-0.8-3.2-1.4
			c-0.9-0.8-1.3-1.7-1.3-2.8c0-0.7,0.2-1.4,0.6-2c0.4-0.6,1-1.1,1.8-1.4s1.7-0.5,2.8-0.5c1.8,0,3.1,0.4,4,1.2
			c0.9,0.8,1.4,1.8,1.4,3.1l-2.8,0.1c-0.1-0.7-0.4-1.2-0.8-1.6c-0.4-0.3-1-0.5-1.8-0.5c-0.8,0-1.5,0.2-1.9,0.5
			c-0.3,0.2-0.5,0.5-0.5,0.9c0,0.3,0.1,0.6,0.4,0.9c0.4,0.3,1.2,0.6,2.6,0.9s2.4,0.7,3.1,1s1.2,0.8,1.6,1.4c0.4,0.6,0.6,1.4,0.6,2.2
			c0,0.8-0.2,1.6-0.7,2.3c-0.4,0.7-1.1,1.2-1.9,1.6s-1.8,0.5-3.1,0.5c-1.8,0-3.2-0.4-4.1-1.2S280.7,76.5,280.5,74.9z"/>
		<path class="st0" d="M297,65.4v5.2c0.9-1,1.9-1.5,3.1-1.5c0.6,0,1.2,0.1,1.7,0.3c0.5,0.2,0.9,0.5,1.1,0.9c0.3,0.4,0.4,0.8,0.5,1.2
			c0.1,0.4,0.1,1.1,0.1,2v6h-2.7v-5.4c0-1.1-0.1-1.8-0.2-2c-0.1-0.3-0.3-0.5-0.5-0.7s-0.6-0.3-1-0.3c-0.4,0-0.9,0.1-1.2,0.3
			c-0.4,0.2-0.6,0.5-0.8,1c-0.2,0.4-0.2,1.1-0.2,1.9v5.1h-2.7V65.4H297z"/>
		<path class="st0" d="M306.4,67.9v-2.5h2.7v2.5H306.4z M306.4,79.5V69.3h2.7v10.2H306.4z"/>
		<path class="st0" d="M311.8,69.3h2.5v1.5c0.3-0.5,0.8-0.9,1.3-1.3c0.6-0.3,1.2-0.5,1.9-0.5c1.2,0,2.2,0.5,3,1.4
			c0.8,0.9,1.2,2.2,1.2,3.9c0,1.7-0.4,3-1.3,4s-1.8,1.4-3,1.4c-0.6,0-1.1-0.1-1.5-0.3c-0.5-0.2-0.9-0.6-1.4-1.2v5.1h-2.7V69.3z
			 M314.4,74.2c0,1.1,0.2,2,0.7,2.5c0.5,0.5,1,0.8,1.7,0.8c0.6,0,1.2-0.3,1.6-0.8c0.4-0.5,0.6-1.3,0.6-2.5c0-1.1-0.2-1.9-0.6-2.4
			s-1-0.8-1.6-0.8c-0.7,0-1.2,0.3-1.6,0.8C314.7,72.4,314.4,73.2,314.4,74.2z"/>
		<path class="st0" d="M323.8,69.3h2.5v1.5c0.3-0.5,0.8-0.9,1.3-1.3c0.6-0.3,1.2-0.5,1.9-0.5c1.2,0,2.2,0.5,3,1.4
			c0.8,0.9,1.2,2.2,1.2,3.9c0,1.7-0.4,3-1.3,4s-1.8,1.4-3,1.4c-0.6,0-1.1-0.1-1.5-0.3c-0.5-0.2-0.9-0.6-1.4-1.2v5.1h-2.7V69.3z
			 M326.5,74.2c0,1.1,0.2,2,0.7,2.5c0.5,0.5,1,0.8,1.7,0.8c0.6,0,1.2-0.3,1.6-0.8c0.4-0.5,0.6-1.3,0.6-2.5c0-1.1-0.2-1.9-0.6-2.4
			s-1-0.8-1.6-0.8c-0.7,0-1.2,0.3-1.6,0.8C326.7,72.4,326.5,73.2,326.5,74.2z"/>
		<path class="st0" d="M335.9,67.9v-2.5h2.7v2.5H335.9z M335.9,79.5V69.3h2.7v10.2H335.9z"/>
		<path class="st0" d="M350.7,79.5H348v-5.2c0-1.1-0.1-1.8-0.2-2.1c-0.1-0.3-0.3-0.6-0.6-0.8s-0.6-0.3-0.9-0.3
			c-0.5,0-0.9,0.1-1.3,0.4c-0.4,0.3-0.6,0.6-0.8,1c-0.1,0.4-0.2,1.2-0.2,2.3v4.6h-2.7V69.3h2.5v1.5c0.9-1.2,2-1.7,3.4-1.7
			c0.6,0,1.1,0.1,1.6,0.3s0.9,0.5,1.1,0.8c0.3,0.3,0.4,0.7,0.5,1.1c0.1,0.4,0.1,1,0.1,1.8V79.5z"/>
		<path class="st0" d="M353.2,80.1l3.1,0.4c0.1,0.4,0.2,0.6,0.4,0.7c0.3,0.2,0.7,0.3,1.2,0.3c0.7,0,1.2-0.1,1.6-0.3
			c0.2-0.1,0.4-0.4,0.5-0.7c0.1-0.2,0.1-0.6,0.1-1.2v-1.5c-0.8,1.1-1.8,1.7-3.1,1.7c-1.4,0-2.5-0.6-3.3-1.7
			c-0.6-0.9-0.9-2.1-0.9-3.4c0-1.7,0.4-3,1.2-3.9s1.8-1.4,3.1-1.4c1.3,0,2.3,0.6,3.1,1.7v-1.4h2.5v9.2c0,1.2-0.1,2.1-0.3,2.7
			s-0.5,1.1-0.8,1.4c-0.4,0.3-0.8,0.6-1.4,0.8c-0.6,0.2-1.4,0.3-2.3,0.3c-1.7,0-3-0.3-3.7-0.9c-0.7-0.6-1.1-1.3-1.1-2.3
			C353.2,80.4,353.2,80.3,353.2,80.1z M355.6,74.2c0,1.1,0.2,1.9,0.6,2.4c0.4,0.5,0.9,0.8,1.6,0.8c0.7,0,1.2-0.3,1.7-0.8
			c0.5-0.5,0.7-1.3,0.7-2.3c0-1.1-0.2-1.8-0.7-2.4c-0.4-0.5-1-0.8-1.7-0.8c-0.6,0-1.2,0.3-1.6,0.8C355.8,72.3,355.6,73.1,355.6,74.2
			z"/>
	</g>
	<path class="st1" d="M94,19.1v72.6H77.9V46.7l-9.9,10v35.1H20.8C9.6,91.6,8.9,82.3,8.9,82.3V6.9h15.7v46.9L36,42.9v-36l45.3,0
		C94.8,6.8,94,19.1,94,19.1"/>
	<polygon class="st2" points="44.5,61.9 67.7,38.9 67.7,19.5 77.8,19.5 77.8,43.2 77.8,43.2 51.6,69.2 	"/>
	<polygon class="st2" points="77.9,46.7 77.9,91.8 68,91.8 68,56.6 	"/>
	<path class="st1" d="M36,27.7v15.2L24.6,53.8V26.9C28.1,26.8,32.3,27.2,36,27.7"/>
	<polygon class="st2" points="36,6.9 36,42.1 24.6,52.9 24.6,6.9 	"/>
	<polygon class="st2" points="58.7,37.4 35.5,60.4 35.5,79.8 25.4,79.8 25.4,56.1 25.4,56.1 51.6,30.2 	"/>
	<rect x="-10.4" y="-11.1" class="st3" width="486" height="123.6"/>
</g>
</svg>
